<svg version="1.1" viewBox="0.0 0.0 960.0 480.0" fill="none" stroke="none" stroke-linecap="square" stroke-miterlimit="10" xmlns:xlink="http://www.w3.org/1999/xlink" xmlns="http://www.w3.org/2000/svg"><clipPath id="p.0"><path d="m0 0l960.0 0l0 480.0l-960.0 0l0 -480.0z" clip-rule="nonzero"/></clipPath><g clip-path="url(#p.0)"><path fill="#000000" fill-opacity="0.0" d="m0 0l960.0 0l0 480.0l-960.0 0z" fill-rule="evenodd"/><g filter="url(#shadowFilter-p.1)"><use xlink:href="#p.1" transform="matrix(1.0 0.0 0.0 1.0 0.0 2.0)"/></g><defs><filter id="shadowFilter-p.1" filterUnits="userSpaceOnUse"><feGaussianBlur in="SourceAlpha" stdDeviation="2.0" result="blur"/><feComponentTransfer in="blur" color-interpolation-filters="sRGB"><feFuncR type="linear" slope="0" intercept="0.0"/><feFuncG type="linear" slope="0" intercept="0.0"/><feFuncB type="linear" slope="0" intercept="0.0"/><feFuncA type="linear" slope="0.5" intercept="0"/></feComponentTransfer></filter></defs><g id="p.1"><path fill="#eeeeee" d="m118.7231 120.79233l0 0c0 -16.20742 13.138718 -29.34613 29.34613 -29.34613l663.85895 0c7.783081 0 15.2473755 3.0918121 20.750854 8.5952835c5.503418 5.5034637 8.595276 12.967766 8.595276 20.750847l0 235.85892c0 16.207428 -13.138733 29.34613 -29.34613 29.34613l-663.85895 0c-16.207413 0 -29.34613 -13.138702 -29.34613 -29.34613z" fill-rule="evenodd"/><path stroke="#000000" stroke-width="4.0" stroke-linejoin="round" stroke-linecap="butt" d="m118.7231 120.79233l0 0c0 -16.20742 13.138718 -29.34613 29.34613 -29.34613l663.85895 0c7.783081 0 15.2473755 3.0918121 20.750854 8.5952835c5.503418 5.5034637 8.595276 12.967766 8.595276 20.750847l0 235.85892c0 16.207428 -13.138733 29.34613 -29.34613 29.34613l-663.85895 0c-16.207413 0 -29.34613 -13.138702 -29.34613 -29.34613z" fill-rule="evenodd"/></g><g filter="url(#shadowFilter-p.2)"><use xlink:href="#p.2" transform="matrix(1.0 0.0 0.0 1.0 0.0 2.0)"/></g><defs><filter id="shadowFilter-p.2" filterUnits="userSpaceOnUse"><feGaussianBlur in="SourceAlpha" stdDeviation="2.0" result="blur"/><feComponentTransfer in="blur" color-interpolation-filters="sRGB"><feFuncR type="linear" slope="0" intercept="0.0"/><feFuncG type="linear" slope="0" intercept="0.0"/><feFuncB type="linear" slope="0" intercept="0.0"/><feFuncA type="linear" slope="0.5" intercept="0"/></feComponentTransfer></filter></defs><g id="p.2"><path fill="#000000" fill-opacity="0.0" d="m118.72277 50.23156l221.70078 0l0 339.874l-221.70078 0z" fill-rule="evenodd"/><path fill="#000000" d="m159.33614 348.02795l0 -4.421875q10.5 -0.234375 17.609375 -5.140625q7.125 -4.890625 10.734375 -16.21875q3.625 -11.3125 3.625 -30.21878l0 -128.32812q0 -8.625 -1.40625 -12.703125q-1.390625 -4.09375 -5.484375 -5.609375q-4.078125 -1.515625 -12.0 -1.75l0 -4.671875q4.890625 0.234375 12.828125 0.46875q7.9375 0.234375 16.5625 0.234375q8.640625 0 16.6875 -0.234375q8.046875 -0.234375 13.421875 -0.46875l0 4.671875q-7.9375 0.234375 -12.03125 1.75q-4.078125 1.515625 -5.484375 5.609375q-1.390625 4.078125 -1.390625 12.703125l0 85.40625q0 9.5625 -0.234375 20.765625q-0.234375 11.203125 -1.046875 21.703125q-0.8125 10.5 -2.6875 18.421906q-3.96875 16.34375 -16.6875 27.1875q-12.703125 10.84375 -33.015625 10.84375zm106.409744 -70.453156q6.0625 0 10.484375 4.4375q4.4375 4.421875 4.4375 10.484375q0 6.078125 -4.4375 10.515625q-4.421875 4.4219055 -10.484375 4.4219055q-6.078125 0 -10.515625 -4.4219055q-4.421875 -4.4375 -4.421875 -10.515625q0 -6.0625 4.421875 -10.484375q4.4375 -4.4375 10.515625 -4.4375z" fill-rule="nonzero"/></g><g filter="url(#shadowFilter-p.3)"><use xlink:href="#p.3" transform="matrix(1.0 0.0 0.0 1.0 0.0 2.0)"/></g><defs><filter id="shadowFilter-p.3" filterUnits="userSpaceOnUse"><feGaussianBlur in="SourceAlpha" stdDeviation="2.0" result="blur"/><feComponentTransfer in="blur" color-interpolation-filters="sRGB"><feFuncR type="linear" slope="0" intercept="0.0"/><feFuncG type="linear" slope="0" intercept="0.0"/><feFuncB type="linear" slope="0" intercept="0.0"/><feFuncA type="linear" slope="0.5" intercept="0"/></feComponentTransfer></filter></defs><g id="p.3"><path fill="#000000" fill-opacity="0.0" d="m250.97734 86.840096l590.2992 0l0 198.29922l-590.2992 0z" fill-rule="evenodd"/><path fill="#000000" d="m334.46158 138.13033q6.671875 0 10.140625 1.53125q3.46875 1.53125 6.125 3.390625q1.609375 0.9375 2.609375 1.40625q1.0 0.46875 1.9375 0.46875q1.328125 0 1.921875 -1.46875q0.609375 -1.46875 1.0 -4.390625l3.078125 0q-0.140625 2.265625 -0.34375 5.40625q-0.203125 3.125 -0.265625 8.265625q-0.0625 5.125 -0.0625 13.515625l-3.0625 0q-0.40625 -6.390625 -2.8125 -12.25q-2.390625 -5.875 -7.0 -9.609375q-4.59375 -3.734375 -12.0625 -3.734375q-7.0625 0 -11.671875 4.265625q-4.59375 4.265625 -4.59375 11.203125q0 6.0 3.0625 10.0625q3.078125 4.0625 8.203125 7.328125q5.140625 3.265625 11.140625 7.0q6.921875 4.265625 12.328125 8.46875q5.40625 4.203125 8.53125 9.265625q3.140625 5.0625 3.140625 12.265625q0 8.53125 -3.875 14.140625q-3.859375 5.59375 -10.265625 8.390625q-6.390625 2.796875 -14.125 2.796875q-7.078125 0 -11.21875 -1.59375q-4.125 -1.59375 -7.046875 -3.328125q-2.9375 -1.875 -4.53125 -1.875q-1.34375 0 -1.953125 1.46875q-0.59375 1.46875 -0.984375 4.40625l-3.0625 0q0.265625 -2.796875 0.328125 -6.59375q0.0625 -3.8125 0.125 -9.9375q0.078125 -6.140625 0.078125 -15.46875l3.0625 0q0.53125 8.0 3.0 14.9375q2.46875 6.921875 7.59375 11.125q5.140625 4.203125 13.671875 4.203125q4.40625 0 8.328125 -1.796875q3.9375 -1.8125 6.46875 -5.734375q2.53125 -3.9375 2.53125 -10.203125q0 -5.46875 -2.609375 -9.53125q-2.59375 -4.0625 -7.265625 -7.59375q-4.65625 -3.546875 -10.921875 -7.28125q-6.265625 -3.859375 -11.734375 -7.859375q-5.46875 -4.0 -8.734375 -9.265625q-3.265625 -5.265625 -3.265625 -12.734375q0 -7.859375 3.53125 -13.0q3.53125 -5.140625 9.265625 -7.59375q5.734375 -2.46875 12.265625 -2.46875zm116.80972 1.46875q-0.546875 5.0625 -0.75 9.796875q-0.1875 4.734375 -0.1875 7.265625q0 3.203125 0.125 6.0q0.140625 2.796875 0.265625 4.9375l-3.0625 0q-0.9375 -9.34375 -2.53125 -14.734375q-1.59375 -5.40625 -5.59375 -7.796875q-4.0 -2.40625 -12.40625 -2.40625l-7.203125 0l0 75.859375q0 5.328125 1.0 8.0q1.0 2.671875 3.9375 3.609375q2.9375 0.921875 8.53125 1.1875l0 2.671875q-3.46875 -0.265625 -8.796875 -0.328125q-5.328125 -0.078125 -10.796875 -0.078125q-6.0 0 -11.265625 0.078125q-5.265625 0.0625 -8.46875 0.328125l0 -2.671875q5.59375 -0.265625 8.53125 -1.1875q2.9375 -0.9375 3.9375 -3.609375q1.0 -2.671875 1.0 -8.0l0 -75.859375l-7.203125 0q-8.265625 0 -12.34375 2.40625q-4.0625 2.390625 -5.65625 7.796875q-1.59375 5.390625 -2.53125 14.734375l-3.0625 0q0.265625 -2.140625 0.328125 -4.9375q0.0625 -2.796875 0.0625 -6.0q0 -2.53125 -0.203125 -7.265625q-0.1875 -4.734375 -0.734375 -9.796875q5.609375 0.125 12.203125 0.265625q6.609375 0.125 13.265625 0.125q6.671875 0 12.140625 0q5.46875 0 12.0625 0q6.59375 0 13.265625 -0.125q6.671875 -0.140625 12.140625 -0.265625zm91.18744 0l0 2.65625q-4.53125 0.140625 -6.875 1.34375q-2.328125 1.1875 -3.125 3.859375q-0.796875 2.671875 -0.796875 7.59375l0 40.140625q0 9.328125 -1.203125 16.265625q-1.203125 6.9375 -4.265625 12.0q-3.328125 5.59375 -9.734375 9.0q-6.390625 3.390625 -14.65625 3.390625q-6.40625 0 -12.203125 -1.53125q-5.796875 -1.53125 -10.203125 -5.65625q-3.859375 -3.734375 -6.0625 -7.859375q-2.203125 -4.140625 -3.0 -10.140625q-0.796875 -6.0 -0.796875 -15.078125l0 -41.859375q0 -4.9375 -0.8125 -7.265625q-0.796875 -2.328125 -3.125 -3.1875q-2.328125 -0.875 -6.875 -1.015625l0 -2.65625q2.8125 0.125 7.34375 0.265625q4.53125 0.125 9.734375 0.125q4.65625 0 9.25 -0.125q4.609375 -0.140625 7.671875 -0.265625l0 2.65625q-4.53125 0.140625 -6.859375 1.015625q-2.328125 0.859375 -3.140625 3.1875q-0.796875 2.328125 -0.796875 7.265625l0 44.140625q0 6.796875 0.65625 12.859375q0.671875 6.0625 2.734375 10.671875q2.078125 4.59375 6.34375 7.203125q4.265625 2.59375 11.328125 2.59375q10.140625 0 15.671875 -4.46875q5.53125 -4.46875 7.734375 -12.328125q2.203125 -7.875 2.203125 -17.734375l0 -41.609375q0 -4.921875 -1.140625 -7.59375q-1.125 -2.671875 -3.796875 -3.859375q-2.671875 -1.203125 -7.203125 -1.34375l0 -2.65625q2.40625 0.125 6.328125 0.265625q3.9375 0.125 7.28125 0.125q3.453125 0 6.859375 -0.125q3.40625 -0.140625 5.53125 -0.265625zm42.930847 -0.671875l32.53125 83.859375q2.0 5.0625 4.53125 6.734375q2.53125 1.671875 4.671875 1.796875l0 2.671875q-2.671875 -0.265625 -6.546875 -0.328125q-3.859375 -0.078125 -7.71875 -0.078125q-5.203125 0 -9.734375 0.078125q-4.53125 0.0625 -7.328125 0.328125l0 -2.671875q6.796875 -0.265625 8.65625 -2.328125q1.875 -2.0625 -0.796875 -8.859375l-24.796875 -66.265625l2.140625 -1.734375l-23.203125 60.265625q-2.140625 5.328125 -2.546875 9.0q-0.390625 3.65625 0.734375 5.796875q1.140625 2.125 3.875 3.0625q2.734375 0.9375 6.875 1.0625l0 2.671875q-3.734375 -0.265625 -7.8125 -0.328125q-4.0625 -0.078125 -7.53125 -0.078125q-3.328125 0 -5.671875 0.078125q-2.328125 0.0625 -4.328125 0.328125l0 -2.671875q2.671875 -0.65625 5.46875 -3.125q2.796875 -2.46875 5.0625 -8.46875l31.34375 -80.796875q0.53125 0 1.0625 0q0.53125 0 1.0625 0zm16.265625 56.65625l0 2.671875l-39.734375 0l1.34375 -2.671875l38.390625 0zm27.595703 -55.984375q2.8125 0.125 7.34375 0.265625q4.53125 0.125 8.921875 0.125q6.265625 0 12.0 -0.125q5.734375 -0.140625 8.140625 -0.140625q10.796875 0 17.921875 3.078125q7.140625 3.0625 10.671875 8.328125q3.53125 5.265625 3.53125 11.796875q0 4.0 -1.59375 8.53125q-1.59375 4.53125 -5.53125 8.53125q-3.9375 4.0 -10.734375 6.609375q-6.796875 2.59375 -17.203125 2.59375l-12.796875 0l0 -2.671875l11.46875 0q9.46875 0 14.46875 -3.0q5.0 -3.0 6.796875 -8.0q1.796875 -5.0 1.796875 -11.125q0 -10.53125 -5.0 -16.328125q-5.0 -5.8125 -17.125 -5.8125q-6.140625 0 -8.015625 2.265625q-1.859375 2.265625 -1.859375 9.203125l0 66.140625q0 4.796875 0.796875 7.203125q0.8125 2.390625 3.140625 3.1875q2.328125 0.796875 6.859375 1.0625l0 2.671875q-3.0625 -0.265625 -7.671875 -0.328125q-4.59375 -0.078125 -9.25 -0.078125q-5.203125 0 -9.734375 0.078125q-4.53125 0.0625 -7.34375 0.328125l0 -2.671875q4.546875 -0.265625 6.875 -1.0625q2.328125 -0.796875 3.125 -3.1875q0.8125 -2.40625 0.8125 -7.203125l0 -66.140625q0 -4.9375 -0.8125 -7.265625q-0.796875 -2.328125 -3.125 -3.1875q-2.328125 -0.875 -6.875 -1.015625l0 -2.65625zm21.203125 47.328125q7.203125 0.265625 11.328125 0.609375q4.140625 0.328125 6.734375 0.59375q2.609375 0.265625 5.0 0.65625q8.9375 1.46875 12.875 5.40625q3.9375 3.9375 5.796875 12.203125l3.328125 13.59375q1.34375 5.859375 2.734375 8.46875q1.40625 2.59375 4.34375 2.46875q2.265625 -0.140625 3.796875 -1.46875q1.53125 -1.328125 3.265625 -3.609375l2.0 1.46875q-2.796875 4.140625 -5.796875 6.34375q-3.0 2.1875 -8.46875 2.1875q-4.9375 0 -8.671875 -2.921875q-3.734375 -2.9375 -5.59375 -11.46875l-2.9375 -13.328125q-1.203125 -5.734375 -2.734375 -9.9375q-1.53125 -4.203125 -4.265625 -6.59375q-2.734375 -2.40625 -8.0625 -2.40625l-14.40625 0l-0.265625 -2.265625zm137.604 -47.328125q-0.546875 5.0625 -0.75 9.796875q-0.1875 4.734375 -0.1875 7.265625q0 3.203125 0.125 6.0q0.140625 2.796875 0.265625 4.9375l-3.0625 0q-0.9375 -9.34375 -2.53125 -14.734375q-1.59375 -5.40625 -5.59375 -7.796875q-4.0 -2.40625 -12.40625 -2.40625l-7.203186 0l0 75.859375q0 5.328125 1.0 8.0q1.0 2.671875 3.9375 3.609375q2.937561 0.921875 8.531311 1.1875l0 2.671875q-3.46875 -0.265625 -8.796936 -0.328125q-5.328125 -0.078125 -10.796875 -0.078125q-6.0 0 -11.265625 0.078125q-5.265625 0.0625 -8.46875 0.328125l0 -2.671875q5.59375 -0.265625 8.53125 -1.1875q2.9375 -0.9375 3.9375 -3.609375q1.0 -2.671875 1.0 -8.0l0 -75.859375l-7.203125 0q-8.265625 0 -12.34375 2.40625q-4.0625 2.390625 -5.65625 7.796875q-1.59375 5.390625 -2.53125 14.734375l-3.0625 0q0.265625 -2.140625 0.328125 -4.9375q0.0625 -2.796875 0.0625 -6.0q0 -2.53125 -0.203125 -7.265625q-0.1875 -4.734375 -0.734375 -9.796875q5.609375 0.125 12.203125 0.265625q6.609375 0.125 13.265625 0.125q6.671875 0 12.140625 0q5.46875 0 12.0625 0q6.593811 0 13.265686 -0.125q6.671875 -0.140625 12.140625 -0.265625z" fill-rule="nonzero"/></g><g filter="url(#shadowFilter-p.4)"><use xlink:href="#p.4" transform="matrix(1.0 0.0 0.0 1.0 0.0 2.0)"/></g><defs><filter id="shadowFilter-p.4" filterUnits="userSpaceOnUse"><feGaussianBlur in="SourceAlpha" stdDeviation="2.0" result="blur"/><feComponentTransfer in="blur" color-interpolation-filters="sRGB"><feFuncR type="linear" slope="0" intercept="0.0"/><feFuncG type="linear" slope="0" intercept="0.0"/><feFuncB type="linear" slope="0" intercept="0.0"/><feFuncA type="linear" slope="0.5" intercept="0"/></feComponentTransfer></filter></defs><g id="p.4"><path fill="#000000" fill-opacity="0.0" d="m294.14114 230.24832l503.68503 0l0 154.92914l-503.68503 0z" fill-rule="evenodd"/><path fill="#000000" d="m375.107 319.38788q-0.71875 1.203125 -1.921875 2.40625q-1.203125 1.203125 -3.046875 2.046875q-1.828125 0.828125 -4.546875 0.828125q-2.171875 0 -4.140625 -0.71875q-1.953125 -0.71875 -3.234375 -2.4375q-1.265625 -1.71875 -1.265625 -4.6875q0 -4.953125 3.59375 -7.953125q3.59375 -3.0 9.671875 -5.234375q1.453125 -0.5625 4.0 -1.4375q2.5625 -0.890625 5.5625 -1.96875q3.0 -1.078125 5.953125 -2.28125q2.96875 -1.203125 5.21875 -2.234375q2.390625 -1.125 4.234375 -2.40625q1.84375 -1.28125 2.921875 -2.875q1.078125 -1.609375 1.078125 -3.609375q0 -2.953125 -2.28125 -4.90625q-2.28125 -1.96875 -5.640625 -1.96875q-2.078125 0 -2.5625 0.71875q0.890625 0.484375 1.28125 1.328125q0.40625 0.828125 0.40625 1.71875q0 1.203125 -0.765625 2.25q-0.765625 1.03125 -1.96875 1.671875q-1.1875 0.640625 -2.546875 0.640625q-1.515625 0 -2.5625 -0.875q-1.046875 -0.890625 -1.046875 -2.484375q0 -1.765625 1.203125 -3.046875q1.203125 -1.28125 2.796875 -2.0q1.359375 -0.640625 2.84375 -0.875q1.484375 -0.25 3.0 -0.25q2.96875 0 5.203125 0.96875q2.234375 0.953125 3.515625 2.953125q1.28125 2.0 1.28125 5.203125q0 2.640625 -1.0 4.921875q-1.0 2.28125 -3.15625 4.25q-2.15625 1.953125 -5.59375 3.703125q-2.171875 1.046875 -5.296875 2.296875q-3.109375 1.234375 -6.546875 2.515625q-3.4375 1.265625 -6.640625 2.4375q-3.203125 1.15625 -5.609375 2.109375q-1.59375 0.640625 -3.59375 1.640625q-2.0 1.0 -3.40625 2.53125q-1.390625 1.515625 -1.390625 3.75q0 2.5625 2.03125 3.96875q2.046875 1.390625 4.765625 1.390625q2.484375 0 4.15625 -0.953125q1.6875 -0.96875 2.6875 -2.078125q1.0 -1.125 1.3125 -1.6875l1.046875 0.71875zm-9.515625 -27.515625q2.15625 0 3.546875 -1.15625q1.40625 -1.15625 1.40625 -3.25q0 -2.71875 -2.25 -4.265625q-2.234375 -1.5625 -5.515625 -1.5625q-3.28125 0 -5.84375 1.5625q-2.546875 1.546875 -4.0 4.234375q-1.4375 2.671875 -1.4375 6.125q0 1.59375 0.40625 3.3125q0.40625 1.71875 1.359375 3.328125q1.4375 -0.25 2.875 -0.359375q1.453125 -0.125 2.171875 -0.125q2.875 0 2.875 1.671875q0 0.890625 -0.796875 1.296875q-0.796875 0.390625 -1.6875 0.390625q-1.515625 0 -3.078125 -0.671875q-1.5625 -0.6875 -2.4375 -1.09375q-3.59375 1.046875 -6.359375 3.40625q-2.765625 2.359375 -4.328125 5.515625q-1.546875 3.15625 -1.546875 6.84375q0 4.796875 2.59375 8.046875q2.59375 3.234375 7.15625 4.921875q4.5625 1.671875 10.328125 1.671875q4.640625 0 8.640625 -1.03125q4.0 -1.046875 7.0 -3.0q3.0 -1.96875 4.671875 -4.71875q1.6875 -2.765625 1.6875 -6.140625q0 -2.953125 -1.484375 -6.03125q-1.484375 -3.078125 -4.84375 -5.078125l1.125 -0.5625q3.28125 2.40625 5.03125 5.5625q1.765625 3.15625 1.765625 7.15625q0 3.921875 -1.765625 7.484375q-1.75 3.5625 -5.203125 6.328125q-3.4375 2.75 -8.359375 4.359375q-4.90625 1.59375 -11.3125 1.59375q-7.03125 0 -12.203125 -2.03125q-5.15625 -2.046875 -8.0 -5.8125q-2.828125 -3.765625 -2.828125 -9.046875q0 -4.796875 2.265625 -8.828125q2.28125 -4.046875 6.15625 -6.96875q3.890625 -2.921875 8.765625 -4.28125q-2.71875 -1.515625 -4.15625 -3.90625q-1.4375 -2.40625 -1.4375 -5.046875q0 -3.6875 2.46875 -6.203125q2.484375 -2.515625 6.125 -3.828125q3.640625 -1.328125 7.25 -1.328125q4.46875 0 7.140625 1.921875q2.6875 1.921875 2.6875 5.03125q0 3.046875 -2.203125 4.53125q-2.1875 1.46875 -4.59375 1.46875l0.171875 -1.4375zm58.318665 31.6875q-2.96875 4.15625 -3.578125 6.640625q-0.59375 2.46875 0.921875 3.546875q1.53125 1.078125 4.8125 1.171875l-0.40625 1.59375q-2.234375 -0.15625 -4.640625 -0.1875q-2.390625 -0.046875 -4.46875 -0.046875q-2.0 0 -3.359375 0.046875q-1.375 0.03125 -2.640625 0.1875l0.390625 -1.59375q1.125 -0.25 2.328125 -1.0q1.1875 -0.765625 2.640625 -2.203125q1.4375 -1.4375 3.03125 -3.765625l34.484375 -48.484375q0.3125 0 0.59375 0q0.28125 0 0.609375 0l3.1875 50.328125q0.25 2.875 1.484375 3.953125q1.25 1.078125 2.4375 1.171875l-0.3125 1.59375q-1.609375 -0.15625 -4.015625 -0.1875q-2.390625 -0.046875 -4.703125 -0.046875q-2.890625 0 -5.453125 0.046875q-2.546875 0.03125 -4.15625 0.1875l0.328125 -1.59375q3.84375 -0.171875 5.4375 -1.40625q1.59375 -1.234375 1.4375 -5.3125l-2.15625 -39.53125l0.5625 -0.15625l-24.796875 35.046875zm6.390625 -10.09375l23.359375 0l-0.640625 1.609375l-24.15625 0l1.4375 -1.609375zm42.24182 21.84375q0.640625 0.328125 1.390625 0.53125q0.765625 0.1875 2.296875 0.1875q3.515625 0 5.796875 -2.109375q2.28125 -2.125 2.28125 -6.125q0 -2.484375 -0.921875 -4.921875q-0.921875 -2.4375 -3.25 -5.640625q-1.828125 -2.5625 -3.515625 -5.234375q-1.671875 -2.6875 -1.671875 -6.359375q0 -3.4375 1.671875 -5.953125q1.6875 -2.53125 4.515625 -3.96875q2.84375 -1.4375 6.203125 -1.4375q2.328125 0 4.5625 0.5625q2.234375 0.546875 3.71875 2.03125q1.484375 1.484375 1.484375 4.359375q0 0.71875 -0.359375 1.71875q-0.359375 1.0 -1.171875 1.71875q-0.796875 0.71875 -2.15625 0.71875q-1.28125 0 -2.234375 -0.90625q-0.953125 -0.921875 -0.953125 -2.453125q0 -1.4375 0.59375 -2.75q0.59375 -1.328125 1.640625 -2.609375q-1.515625 -0.953125 -4.0 -0.953125q-2.953125 0 -4.953125 2.0q-2.0 2.0 -2.0 5.59375q0 1.84375 0.546875 3.25q0.5625 1.390625 1.640625 2.921875q1.078125 1.515625 2.609375 3.828125q2.0 3.046875 3.359375 5.84375q1.359375 2.796875 1.359375 5.921875q0 3.671875 -1.890625 6.515625q-1.875 2.84375 -5.0 4.453125q-3.109375 1.59375 -6.875 1.59375q-2.71875 0 -5.203125 -0.8125q-2.46875 -0.796875 -4.03125 -2.515625q-1.5625 -1.71875 -1.5625 -4.59375q0 -1.125 0.6875 -2.359375q0.671875 -1.25 2.4375 -1.25q1.921875 0 2.71875 1.5625q0.796875 1.5625 0.796875 3.484375q0 1.28125 -0.203125 2.28125q-0.203125 1.0 -0.359375 1.875zm30.47995 0q0.640625 0.328125 1.390625 0.53125q0.765625 0.1875 2.296875 0.1875q3.515625 0 5.7969055 -2.109375q2.28125 -2.125 2.28125 -6.125q0 -2.484375 -0.921875 -4.921875q-0.921875 -2.4375 -3.2500305 -5.640625q-1.828125 -2.5625 -3.515625 -5.234375q-1.671875 -2.6875 -1.671875 -6.359375q0 -3.4375 1.671875 -5.953125q1.6875 -2.53125 4.515625 -3.96875q2.8437805 -1.4375 6.2031555 -1.4375q2.328125 0 4.5625 0.5625q2.234375 0.546875 3.71875 2.03125q1.484375 1.484375 1.484375 4.359375q0 0.71875 -0.359375 1.71875q-0.359375 1.0 -1.171875 1.71875q-0.796875 0.71875 -2.15625 0.71875q-1.28125 0 -2.234375 -0.90625q-0.953125 -0.921875 -0.953125 -2.453125q0 -1.4375 0.59375 -2.75q0.59375 -1.328125 1.640625 -2.609375q-1.515625 -0.953125 -4.0 -0.953125q-2.953125 0 -4.953125 2.0q-2.0000305 2.0 -2.0000305 5.59375q0 1.84375 0.5469055 3.25q0.5625 1.390625 1.640625 2.921875q1.078125 1.515625 2.609375 3.828125q2.0 3.046875 3.359375 5.84375q1.359375 2.796875 1.359375 5.921875q0 3.671875 -1.890625 6.515625q-1.875 2.84375 -5.0 4.453125q-3.1094055 1.59375 -6.8750305 1.59375q-2.71875 0 -5.203125 -0.8125q-2.46875 -0.796875 -4.03125 -2.515625q-1.5625 -1.71875 -1.5625 -4.59375q0 -1.125 0.6875 -2.359375q0.671875 -1.25 2.4375 -1.25q1.921875 0 2.71875 1.5625q0.796875 1.5625 0.796875 3.484375q0 1.28125 -0.203125 2.28125q-0.203125 1.0 -0.359375 1.875zm50.07376 -39.4375q-2.546875 0 -4.906311 2.046875q-2.359375 2.03125 -4.328125 5.515625q-1.953125 3.484375 -3.4375 7.8125q-1.484375 4.3125 -2.28125 8.953125q-0.796875 4.625 -0.796875 8.875q0 3.59375 1.15625 5.28125q1.15625 1.671875 3.40625 1.671875q2.5625 0 4.921875 -2.03125q2.359375 -2.046875 4.359436 -5.515625q2.0 -3.484375 3.4375 -7.796875q1.4375 -4.328125 2.234375 -8.921875q0.796875 -4.609375 0.796875 -8.9375q0 -3.671875 -1.125 -5.3125q-1.109375 -1.640625 -3.4375 -1.640625zm-22.625061 29.203125q0 -3.515625 0.953125 -7.671875q0.953125 -4.171875 2.875 -8.25q1.921875 -4.078125 4.671875 -7.4375q2.765625 -3.359375 6.4375 -5.390625q3.6875 -2.046875 8.171936 -2.046875q4.96875 0 7.96875 3.078125q3.0 3.078125 3.0 9.46875q0 3.53125 -0.96875 7.6875q-0.953125 4.15625 -2.875 8.234375q-1.921875 4.078125 -4.6875 7.453125q-2.75 3.359375 -6.437561 5.40625q-3.671875 2.03125 -8.15625 2.03125q-4.953125 0 -7.953125 -3.125q-3.0 -3.125 -3.0 -9.4375zm63.196228 -29.203125q-3.046875 0 -6.046875 2.484375q-3.0 2.46875 -5.484375 6.796875q-2.46875 4.3125 -3.953125 9.84375q-1.484375 5.515625 -1.484375 11.59375q0 4.078125 1.5625 5.890625q1.5625 1.796875 4.046875 1.796875q2.875 0 5.90625 -1.765625q3.046875 -1.765625 6.09375 -6.234375l1.59375 0.640625q-1.515625 2.640625 -4.0 5.125q-2.484375 2.46875 -5.5625 4.03125q-3.078125 1.5625 -6.515625 1.5625q-4.796875 0 -7.6875 -2.953125q-2.875 -2.96875 -2.875 -8.8125q0 -3.671875 1.078125 -7.953125q1.078125 -4.28125 3.125 -8.484375q2.046875 -4.203125 5.0 -7.59375q2.953125 -3.40625 6.71875 -5.484375q3.765625 -2.078125 8.234375 -2.078125q3.53125 0 6.078125 1.796875q2.5625 1.796875 2.5625 5.0q0 1.515625 -0.6875 3.0q-0.671875 1.484375 -1.953125 2.4375q-1.28125 0.953125 -3.03125 0.953125q-1.6875 0 -2.484375 -0.90625q-0.796875 -0.921875 -0.796875 -2.203125q0 -2.328125 1.828125 -3.96875q1.84375 -1.640625 4.171875 -2.03125q-0.796875 -1.125 -2.078125 -1.796875q-1.28125 -0.6875 -3.359375 -0.6875zm23.841248 -15.046875q0.390625 -2.078125 2.109375 -3.59375q1.71875 -1.515625 3.71875 -1.515625q2.09375 0 3.25 1.515625q1.15625 1.515625 0.75 3.59375q-0.390625 2.09375 -2.109375 3.609375q-1.71875 1.515625 -3.796875 1.515625q-2.0 0 -3.171875 -1.515625q-1.15625 -1.515625 -0.75 -3.609375zm-2.484375 21.375q1.671875 -4.96875 -1.125 -4.96875q-1.828125 0 -3.28125 2.0q-1.4375 2.0 -3.03125 6.15625l-1.125 2.96875l-1.515625 0l2.078125 -5.84375q1.203125 -3.359375 2.875 -5.109375q1.6875 -1.765625 3.5625 -2.4375q1.875 -0.6875 3.484375 -0.6875q2.5625 0 3.75 1.046875q1.203125 1.03125 1.4375 2.71875q0.25 1.671875 -0.15625 3.640625q-0.390625 1.953125 -1.03125 3.78125l-8.5625 24.25q-0.796875 2.3125 -0.515625 3.640625q0.28125 1.3125 1.796875 1.3125q1.59375 0 3.03125 -1.75q1.453125 -1.765625 3.203125 -6.40625l1.125 -2.953125l1.515625 0l-2.078125 5.828125q-1.125 3.125 -2.71875 4.921875q-1.59375 1.796875 -3.4375 2.5625q-1.84375 0.765625 -3.6875 0.765625q-3.4375 0 -4.640625 -1.59375q-1.1875 -1.609375 -0.875 -4.171875q0.328125 -2.5625 1.359375 -5.4375l8.5625 -24.234375zm22.081848 32.875q1.921875 0 4.390625 -2.4375q2.484375 -2.4375 5.046875 -6.59375q2.5625 -4.171875 4.71875 -9.453125q2.15625 -5.28125 3.4375 -10.953125l-1.359375 8.640625q-3.03125 8.46875 -6.078125 13.640625q-3.03125 5.15625 -6.15625 7.4375q-3.125 2.28125 -6.328125 2.28125q-3.75 0 -5.640625 -2.71875q-1.875 -2.71875 -1.875 -6.96875q0 -3.84375 1.28125 -8.359375q1.28125 -4.515625 3.5625 -9.0q2.28125 -4.484375 5.234375 -8.15625q2.96875 -3.6875 6.4375 -5.921875q3.484375 -2.234375 7.078125 -2.234375q2.8125 0 4.28125 2.765625q1.484375 2.75 0.609375 7.703125l-0.890625 0.484375q0.5625 -4.234375 -0.5625 -6.828125q-1.109375 -2.609375 -3.671875 -2.609375q-2.078125 0 -4.359375 2.046875q-2.28125 2.03125 -4.40625 5.515625q-2.109375 3.46875 -3.828125 7.796875q-1.71875 4.3125 -2.71875 8.921875q-1.0 4.59375 -1.0 8.84375q0 3.4375 0.75 4.796875q0.765625 1.359375 2.046875 1.359375zm20.15625 -39.6875q1.921875 -0.078125 3.84375 -0.3125q1.921875 -0.25 3.515625 -0.796875l-10.0 35.359375q-0.15625 0.71875 -0.4375 1.875q-0.28125 1.15625 0 2.125q0.28125 0.953125 1.640625 0.953125q1.59375 0 3.109375 -1.75q1.53125 -1.765625 3.046875 -6.40625l0.96875 -2.96875l1.515625 0l-2.0 5.84375q-1.125 3.203125 -2.6875 5.0q-1.546875 1.796875 -3.234375 2.5625q-1.6875 0.765625 -3.28125 0.765625q-3.125 0 -4.40625 -2.078125q-1.03125 -1.84375 -0.5625 -4.28125q0.484375 -2.453125 1.125 -4.921875l7.84375 -30.96875zm41.121216 0l-0.234375 1.609375l-24.890625 0l0.40625 -1.609375l24.71875 0zm-20.3125 34.328125q-0.734375 2.640625 0.34375 3.796875q1.09375 1.15625 2.84375 1.15625q1.765625 0 3.5625 -1.515625q1.796875 -1.515625 3.5625 -6.484375l1.125 -3.109375l1.515625 0l-1.6875 5.03125q-1.75 5.203125 -4.515625 7.125q-2.75 1.921875 -6.4375 1.921875q-3.28125 0 -5.0 -1.40625q-1.71875 -1.40625 -2.046875 -3.953125q-0.3125 -2.5625 0.640625 -5.84375l12.40625 -43.203125q1.921875 -0.078125 3.796875 -0.3125q1.890625 -0.25 3.40625 -0.8125l-13.515625 47.609375zm23.911255 -11.359375q4.484375 -1.53125 8.125 -3.0q3.640625 -1.484375 5.796875 -3.15625q2.875 -2.328125 4.546875 -5.609375q1.6875 -3.28125 1.6875 -7.203125q0 -2.3125 -0.328125 -2.953125q-0.3125 -0.640625 -0.953125 -0.640625q-2.0 0 -4.328125 1.765625q-2.3125 1.75 -4.546875 4.828125q-2.234375 3.078125 -4.125 7.0q-1.875 3.921875 -3.0 8.375q-1.109375 4.4375 -1.109375 8.828125q0 4.078125 1.515625 5.890625q1.515625 1.796875 4.0 1.796875q2.875 0 6.078125 -1.765625q3.203125 -1.765625 6.234375 -6.234375l1.28125 0.640625q-1.515625 2.640625 -4.0 5.125q-2.46875 2.46875 -5.5625 4.03125q-3.078125 1.5625 -6.515625 1.5625q-3.203125 0 -5.609375 -1.28125q-2.390625 -1.28125 -3.671875 -3.796875q-1.28125 -2.53125 -1.28125 -6.203125q0 -3.4375 1.28125 -7.71875q1.28125 -4.28125 3.640625 -8.5625q2.359375 -4.28125 5.640625 -7.875q3.28125 -3.609375 7.28125 -5.765625q4.0 -2.15625 8.5625 -2.15625q2.484375 0 4.203125 1.328125q1.71875 1.3125 1.71875 3.953125q0 3.1875 -1.890625 5.953125q-1.875 2.765625 -4.953125 5.046875q-3.078125 2.265625 -6.6875 4.03125q-3.59375 1.765625 -7.03125 3.046875q-3.4375 1.28125 -6.078125 2.078125l0.078125 -1.359375zm32.319946 16.953125q0.640625 0.328125 1.390625 0.53125q0.765625 0.1875 2.296875 0.1875q3.515625 0 5.796875 -2.109375q2.28125 -2.125 2.28125 -6.125q0 -2.484375 -0.921875 -4.921875q-0.921875 -2.4375 -3.25 -5.640625q-1.828125 -2.5625 -3.515625 -5.234375q-1.671875 -2.6875 -1.671875 -6.359375q0 -3.4375 1.671875 -5.953125q1.6875 -2.53125 4.515625 -3.96875q2.84375 -1.4375 6.203125 -1.4375q2.328125 0 4.5625 0.5625q2.234375 0.546875 3.71875 2.03125q1.484375 1.484375 1.484375 4.359375q0 0.71875 -0.359375 1.71875q-0.359375 1.0 -1.171875 1.71875q-0.796875 0.71875 -2.15625 0.71875q-1.28125 0 -2.234375 -0.90625q-0.953125 -0.921875 -0.953125 -2.453125q0 -1.4375 0.59375 -2.75q0.59375 -1.328125 1.640625 -2.609375q-1.515625 -0.953125 -4.0 -0.953125q-2.953125 0 -4.953125 2.0q-2.0 2.0 -2.0 5.59375q0 1.84375 0.546875 3.25q0.5625 1.390625 1.640625 2.921875q1.078125 1.515625 2.609375 3.828125q2.0 3.046875 3.359375 5.84375q1.359375 2.796875 1.359375 5.921875q0 3.671875 -1.890625 6.515625q-1.875 2.84375 -5.0 4.453125q-3.109375 1.59375 -6.875 1.59375q-2.71875 0 -5.203125 -0.8125q-2.46875 -0.796875 -4.03125 -2.515625q-1.5625 -1.71875 -1.5625 -4.59375q0 -1.125 0.6875 -2.359375q0.671875 -1.25 2.4375 -1.25q1.921875 0 2.71875 1.5625q0.796875 1.5625 0.796875 3.484375q0 1.28125 -0.203125 2.28125q-0.203125 1.0 -0.359375 1.875z" fill-rule="nonzero"/></g></g></svg>